HIERARCHY
ROOT Hips
{
 OFFSET 0.000000 0.000000 0.000000
 CHANNELS 6 Xposition Yposition Zposition Yrotation Xrotation Zrotation
 JOINT Chest
 {
  OFFSET 0.000000 9.581000 -0.001100
  CHANNELS 3 Yrotation Xrotation Zrotation
  JOINT Chest2
  {
   OFFSET 0.000000 9.561100 0.002200
   CHANNELS 3 Yrotation Xrotation Zrotation
   JOINT Chest3
   {
    OFFSET 0.000000 9.521100 0.000000
    CHANNELS 3 Yrotation Xrotation Zrotation
    JOINT Chest4
    {
     OFFSET 0.000000 9.511400 0.000000
     CHANNELS 3 Yrotation Xrotation Zrotation
     JOINT Neck
     {
      OFFSET 0.000000 14.375100 0.000000
      CHANNELS 3 Yrotation Xrotation Zrotation
      JOINT Head
      {
       OFFSET 0.000000 8.901200 0.004600
       CHANNELS 3 Yrotation Xrotation Zrotation
       End Site
       {
        OFFSET 0.000000 16.962200 0.002400
       }
      }
     }
     JOINT RightCollar
     {
      OFFSET -2.920100 9.518800 0.000000
      CHANNELS 3 Yrotation Xrotation Zrotation
      JOINT RightShoulder
      {
       OFFSET -13.664500 0.000000 0.000000
       CHANNELS 3 Yrotation Xrotation Zrotation
       JOINT RightElbow
       {
        OFFSET 0.000000 -29.999200 0.000000
        CHANNELS 3 Yrotation Xrotation Zrotation
        JOINT RightWrist
        {
         OFFSET 0.000000 -24.253600 0.000000
         CHANNELS 3 Yrotation Xrotation Zrotation
         End Site
         {
          OFFSET 0.000000 -17.918900 0.000000
         }
        }
       }
      }
     }
     JOINT LeftCollar
     {
      OFFSET 2.920100 9.518800 0.000000
      CHANNELS 3 Yrotation Xrotation Zrotation
      JOINT LeftShoulder
      {
       OFFSET 13.664500 0.000000 0.000000
       CHANNELS 3 Yrotation Xrotation Zrotation
       JOINT LeftElbow
       {
        OFFSET 0.000000 -29.999200 0.000000
        CHANNELS 3 Yrotation Xrotation Zrotation
        JOINT LeftWrist
        {
         OFFSET 0.000000 -24.253600 0.000000
         CHANNELS 3 Yrotation Xrotation Zrotation
         End Site
         {
          OFFSET 0.000000 -17.918900 0.000000
         }
        }
       }
      }
     }
    }
   }
  }
 }
 JOINT RightHip
 {
  OFFSET -7.797300 0.005300 0.000500
  CHANNELS 3 Yrotation Xrotation Zrotation
  JOINT RightKnee
  {
   OFFSET 0.000000 -40.663400 -0.000500
   CHANNELS 3 Yrotation Xrotation Zrotation
   JOINT RightAnkle
   {
    OFFSET 0.000000 -39.523700 -0.000900
    CHANNELS 3 Yrotation Xrotation Zrotation
    JOINT RightToe
    {
     OFFSET 0.000000 -6.418000 14.485300
     CHANNELS 3 Yrotation Xrotation Zrotation
     End Site
     {
      OFFSET 0.000000 -1.465200 6.326400
     }
    }
   }
  }
 }
 JOINT LeftHip
 {
  OFFSET 7.797300 0.005300 0.000500
  CHANNELS 3 Yrotation Xrotation Zrotation
  JOINT LeftKnee
  {
   OFFSET 0.000000 -40.663400 -0.000500
   CHANNELS 3 Yrotation Xrotation Zrotation
   JOINT LeftAnkle
   {
    OFFSET 0.000000 -39.523700 -0.000900
    CHANNELS 3 Yrotation Xrotation Zrotation
    JOINT LeftToe
    {
     OFFSET 0.000000 -6.418000 14.485300
     CHANNELS 3 Yrotation Xrotation Zrotation
     End Site
     {
      OFFSET 0.000000 -1.465200 6.326400
     }
    }
   }
  }
 }
}
MOTION
Frames: 8
Frame Time: 0.008333
-13.522996 126.908906 28.249169 -160.285543 -48.727521 -3.090153 -3.400512 25.002987 -0.531390 -0.517056 3.961632 0.000919 -0.820838 6.378644 0.013933 -2.761589 20.724321 -0.322018 2.135773 13.759796 2.144506 1.748361 -11.251935 1.759531 10.168350 -5.941764 -0.365655 39.866466 -36.195283 -22.935524 -20.950586 -45.782650 74.144824 -0.014787 11.066446 19.497484 -15.680762 -8.938331 0.741414 -28.137142 -30.666209 17.113653 13.313854 -53.654288 -80.023811 -6.323092 -1.842187 -8.592491 -6.410258 -24.080565 -10.404570 -17.086460 78.937168 -18.642999 9.460103 -15.885698 3.766536 0.006433 -0.005783 0.002850 3.616412 3.339279 -2.556502 130.294933 64.717473 149.001577 9.388425 11.919961 3.179986 0.002894 0.005110 0.001282
-13.521578 126.909121 28.249761 -160.289337 -48.734589 -3.082091 -3.399191 25.022224 -0.524611 -0.516024 3.973000 0.003403 -0.823347 6.372152 0.007834 -2.759764 20.751518 -0.309457 1.967350 13.669186 1.950079 1.613322 -11.349515 1.591465 10.242948 -6.032703 -0.361508 40.021311 -36.084549 -22.884947 -20.725737 -45.242373 73.803367 0.147133 11.736654 20.144343 -15.698062 -8.992078 0.733296 -28.132818 -30.552000 17.000008 13.385987 -53.494370 -80.005501 -6.473365 -1.866782 -8.642831 -6.390383 -24.070682 -10.395375 -17.159775 78.930346 -18.718403 9.509674 -15.885344 3.763863 0.006534 -0.005609 0.002895 3.629410 3.333240 -2.546876 130.286179 64.715231 148.993188 9.380929 11.936143 3.171486 0.002107 0.005473 0.000934
-13.520796 126.909487 28.250486 -160.287115 -48.743225 -3.075231 -3.404448 25.035743 -0.528724 -0.515019 3.987873 0.011357 -0.824931 6.382601 0.009599 -2.758497 20.759205 -0.304434 1.785556 13.564656 1.748797 1.466237 -11.460961 1.419702 10.292593 -6.104216 -0.353353 40.080371 -35.999030 -22.773131 -20.550060 -44.676717 73.597677 0.264714 12.259565 20.521345 -15.712402 -9.043999 0.714564 -27.992467 -30.433292 16.718679 13.281418 -53.356612 -79.860287 -6.630996 -1.823054 -8.764722 -6.385758 -24.062294 -10.399488 -17.146390 78.928104 -18.711995 9.533011 -15.876788 3.758698 0.001582 -0.005821 0.000701 3.636845 3.328413 -2.542425 130.286076 64.713842 148.991652 9.380936 11.955825 3.154497 0.000790 0.007675 0.000350
-13.520521 126.910252 28.250931 -160.293515 -48.756022 -3.060026 -3.405553 25.051645 -0.535798 -0.515816 3.998540 0.017772 -0.816187 6.415218 0.028618 -2.768466 20.736946 -0.318343 1.595779 13.450598 1.544999 1.305383 -11.592100 1.245965 10.343906 -6.172324 -0.311852 40.011859 -35.903973 -22.613439 -20.393553 -44.158928 73.502146 0.293978 12.516389 20.701786 -15.706119 -9.060106 0.636525 -27.739062 -30.330169 16.323392 12.978580 -53.218820 -79.583140 -6.797250 -1.711975 -8.973202 -6.369969 -24.048538 -10.400067 -17.099764 78.923517 -18.678607 9.525851 -15.862075 3.767241 -0.001400 -0.004337 -0.000620 3.648668 3.327926 -2.538320 130.266421 64.709651 148.956529 9.375809 11.964937 3.181423 -0.007432 0.005917 -0.003293
-13.520866 126.911667 28.250891 -160.295415 -48.773347 -3.046412 -3.403374 25.074824 -0.531886 -0.516000 4.004322 0.018709 -0.811775 6.427602 0.028396 -2.782258 20.719612 -0.327098 1.407441 13.333414 1.342435 1.132296 -11.745751 1.071935 10.405310 -6.232802 -0.233979 39.830521 -35.789529 -22.423048 -20.247927 -43.754578 73.481890 0.230016 12.508592 20.796849 -15.690628 -9.051503 0.604869 -27.431933 -30.262360 15.858029 12.685772 -53.031593 -79.304561 -6.962876 -1.553533 -9.257366 -6.361733 -24.035702 -10.402699 -17.160872 78.920624 -18.751841 9.538116 -15.830528 3.768266 0.002405 -0.000592 0.001065 3.653512 3.340732 -2.543775 130.264192 64.708926 148.953895 9.356911 11.953501 3.215666 -0.003380 0.002526 -0.001498
-13.519608 126.911198 28.251927 -160.295605 -48.774523 -3.041771 -3.396515 25.086343 -0.518072 -0.515176 4.010721 0.019599 -0.804994 6.436537 0.026333 -2.778109 20.734120 -0.317199 1.189340 13.163299 1.124246 0.946486 -11.919660 0.899817 10.406197 -6.291819 -0.215072 39.594845 -35.716001 -22.181351 -20.115883 -43.514877 73.499361 0.118346 12.377375 20.820188 -15.706972 -9.085843 0.596242 -27.166853 -30.193107 15.450467 12.517395 -52.779871 -79.097069 -7.099822 -1.384628 -9.576911 -6.362203 -24.034792 -10.401549 -17.193292 78.915698 -18.792292 9.540410 -15.821541 3.772939 0.000478 -0.000808 0.000212 3.656029 3.337238 -2.542481 130.260925 64.709722 148.951445 9.334231 11.939244 3.257929 -0.000910 -0.003613 -0.000403
-13.519760 126.911539 28.252351 -160.301088 -48.781785 -3.027377 -3.385364 25.103738 -0.512991 -0.513741 4.016234 0.020598 -0.808653 6.433003 0.020450 -2.726532 20.787309 -0.293766 0.930501 12.948152 0.904583 0.747320 -12.112367 0.730132 10.369759 -6.378033 -0.191207 39.316900 -35.603585 -21.927982 -20.001221 -43.463736 73.522478 0.026398 12.262861 20.747029 -15.720719 -9.099168 0.587037 -26.963432 -30.178710 15.127275 12.366758 -52.472077 -78.935453 -7.182597 -1.234095 -9.900197 -6.354635 -24.028773 -10.410499 -17.210435 78.913835 -18.812769 9.531162 -15.814326 3.775378 -0.001428 -0.001179 -0.000633 3.666003 3.335292 -2.542050 130.257453 64.709220 148.942631 9.335044 11.950225 3.257278 -0.003190 -0.003888 -0.001413
-13.519794 126.911965 28.252428 -160.304395 -48.787955 -3.017193 -3.365756 25.125183 -0.504723 -0.511493 4.020941 0.021735 -0.817990 6.426294 0.017593 -2.729799 20.783011 -0.293173 0.716816 12.773136 0.685941 0.539340 -12.322975 0.559611 10.375459 -6.426205 -0.106215 39.043817 -35.405571 -21.697879 -19.844729 -43.606519 73.505827 -0.003532 12.216649 20.630531 -15.656280 -9.003863 0.586040 -26.733694 -30.267149 14.819747 12.136405 -52.093943 -78.786707 -7.222053 -1.102847 -10.240570 -6.355646 -24.023852 -10.415919 -17.208143 78.912698 -18.818907 9.531692 -15.802277 3.778555 -0.000335 0.000933 -0.000148 3.673211 3.332865 -2.540301 130.271964 64.710386 148.961064 9.348206 11.982184 3.176932 -0.003380 0.003816 -0.001498
